# 3ds Max Wavefront OBJ Exporter v0.97b - (c)2007 guruware
# File Created: 05.06.2012 22:51:13

#
# object batch_clean
#

v  -12.5000 0.0000 5.0000
v  -12.5000 0.0000 -5.0000
v  12.5000 0.0000 -5.0000
v  12.5000 0.0000 5.0000
v  -12.5000 4.0000 5.0000
v  12.5000 4.0000 5.0000
v  12.5000 4.0000 -5.0000
v  -12.5000 4.0000 -5.0000
# 8 vertices

vn 0.0000 -1.0000 -0.0000
vn 0.0000 1.0000 -0.0000
vn 0.0000 0.0000 1.0000
vn 1.0000 0.0000 -0.0000
vn 0.0000 0.0000 -1.0000
vn -1.0000 0.0000 -0.0000
# 6 vertex normals

vt 0.2485 0.0549 0.0000
vt 0.2485 0.1243 0.0000
vt 0.0750 0.1243 0.0000
vt 0.0750 0.0549 0.0000
vt 0.2485 0.1244 0.0000
vt 0.0750 0.1244 0.0000
vt 0.0750 0.0550 0.0000
vt 0.2485 0.0550 0.0000
vt 0.0750 0.0271 0.0000
vt 0.2485 0.0271 0.0000
vt 0.0056 0.0272 0.0000
vt 0.0750 0.0272 0.0000
vt 0.0056 0.0550 0.0000
vt 0.2485 0.0272 0.0000
vt 0.3179 0.0272 0.0000
vt 0.3179 0.0550 0.0000
# 16 texture coords

g batch_clean
s 2
f 1/1/1 2/2/1 3/3/1 4/4/1 
s 4
f 5/5/2 6/6/2 7/7/2 8/8/2 
s 8
f 1/1/3 4/4/3 6/9/3 5/10/3 
s 16
f 4/11/4 3/12/4 7/7/4 6/13/4 
s 32
f 3/12/5 2/14/5 8/8/5 7/7/5 
s 64
f 2/14/6 1/15/6 5/16/6 8/8/6 
# 6 polygons

