# 3ds Max Wavefront OBJ Exporter v0.97b - (c)2007 guruware
# File Created: 05.06.2012 22:51:25

#
# object box
#

v  -50.0000 0.0000 25.0000
v  -50.0000 0.0000 -25.0000
v  50.0000 0.0000 -25.0000
v  50.0000 0.0000 25.0000
v  -50.0000 50.0000 25.0000
v  50.0000 50.0000 25.0000
v  50.0000 50.0000 -25.0000
v  -50.0000 50.0000 -25.0000
# 8 vertices

vn -0.5774 -0.5774 0.5774
vn -0.5774 -0.5774 -0.5774
vn 0.5774 -0.5774 -0.5774
vn 0.5774 -0.5774 0.5774
vn -0.5774 0.5774 0.5774
vn 0.5774 0.5774 0.5774
vn 0.5774 0.5774 -0.5774
vn -0.5774 0.5774 -0.5774
# 8 vertex normals

vt 0.8243 0.5562 0.0000
vt 0.6515 0.5562 0.0000
vt 0.6515 0.2106 0.0000
vt 0.8243 0.2106 0.0000
vt 0.9971 0.2106 0.0000
vt 0.9971 0.5562 0.0000
vt 0.9971 0.0378 0.0000
vt 0.8243 0.0378 0.0000
vt 0.9971 0.7290 0.0000
vt 0.8243 0.7290 0.0000
# 10 texture coords

g box
s 1
f 1/1/1 2/2/2 3/3/3 4/4/4 
f 5/2/5 6/3/6 7/4/7 8/1/8 
f 1/1/1 4/4/4 6/5/6 5/6/5 
f 4/7/4 3/5/3 7/4/7 6/8/6 
f 3/5/3 2/6/2 8/1/8 7/4/7 
f 2/6/2 1/9/1 5/10/5 8/1/8 
# 6 polygons

