# 3ds Max Wavefront OBJ Exporter v0.97b - (c)2007 guruware
# File Created: 05.06.2012 22:50:12

#
# object single_bend
#

v  4.1243 -0.5003 5.0000
v  3.8497 1.5619 -5.0000
v  -4.1243 -0.5003 -5.0000
v  -3.8497 1.5619 5.0000
v  12.0481 1.7469 5.0000
v  9.6906 7.3689 -5.0000
v  -12.0481 1.7469 -5.0000
v  -9.6906 7.3689 5.0000
# 8 vertices

vn -0.1195 0.9888 0.0889
vn -0.3848 0.8700 0.3084
vn 0.1195 0.9888 -0.0889
vn 0.3848 0.8700 -0.3084
vn -0.4315 0.8363 0.3383
vn -0.6139 0.6175 0.4919
vn 0.4315 0.8363 -0.3383
vn 0.6139 0.6175 -0.4919
# 8 vertex normals

vt 0.7408 0.0751 0.0000
vt 0.8100 0.0751 0.0000
vt 0.8100 0.1328 0.0000
vt 0.7408 0.1328 0.0000
vt 0.7408 0.0174 0.0000
vt 0.8100 0.0174 0.0000
vt 0.8100 0.1905 0.0000
vt 0.7408 0.1905 0.0000
# 8 texture coords

g single_bend
s 4
f 1/1/1 2/2/2 3/3/3 4/4/4 
f 5/5/5 6/6/6 2/2/2 1/1/1 
f 7/7/7 8/8/8 4/4/4 3/3/3 
# 3 polygons

